<svg width="16" height="16" viewBox="0 0 16 16" fill="none" xmlns="http://www.w3.org/2000/svg">
<path fill-rule="evenodd" clip-rule="evenodd" d="M3.33334 8.00017C3.3335 5.77383 4.9063 3.85763 7.08989 3.42344C9.27348 2.98925 11.4597 4.15799 12.3116 6.21491C13.1634 8.27183 12.4436 10.6441 10.5924 11.8808C8.74124 13.1176 6.27418 12.8745 4.7 11.3002C3.82485 10.4249 3.33325 9.23788 3.33334 8.00017Z" stroke="#DC3545" stroke-width="1.5" stroke-linecap="round" stroke-linejoin="round"/>
<path d="M5.71977 9.21908C5.42682 9.51192 5.42673 9.98679 5.71957 10.2797C6.01241 10.5727 6.48728 10.5728 6.78023 10.2799L6.25 9.74951L5.71977 9.21908ZM8.53023 8.53061C8.82318 8.23777 8.82327 7.7629 8.53043 7.46995C8.23759 7.177 7.76272 7.17691 7.46977 7.46975L8 8.00018L8.53023 8.53061ZM7.46947 7.47005C7.17669 7.76306 7.17687 8.23793 7.46987 8.53071C7.76288 8.82349 8.23775 8.82331 8.53053 8.53031L8 8.00018L7.46947 7.47005ZM10.2799 6.77964C10.5726 6.48663 10.5725 6.01176 10.2795 5.71898C9.98646 5.4262 9.51158 5.42638 9.2188 5.71938L9.74933 6.24951L10.2799 6.77964ZM8.53023 7.46975C8.23728 7.17691 7.76241 7.177 7.46957 7.46995C7.17673 7.7629 7.17682 8.23777 7.46977 8.53061L8 8.00018L8.53023 7.46975ZM9.21977 10.2799C9.51272 10.5728 9.98759 10.5727 10.2804 10.2797C10.5733 9.98679 10.5732 9.51192 10.2802 9.21908L9.75 9.74951L9.21977 10.2799ZM7.46957 8.53041C7.76241 8.82336 8.23728 8.82345 8.53023 8.53061C8.82318 8.23777 8.82327 7.7629 8.53043 7.46995L8 8.00018L7.46957 8.53041ZM6.78043 5.71928C6.48759 5.42633 6.01272 5.42624 5.71977 5.71908C5.42682 6.01192 5.42673 6.48679 5.71957 6.77974L6.25 6.24951L6.78043 5.71928ZM6.25 9.74951L6.78023 10.2799L8.53023 8.53061L8 8.00018L7.46977 7.46975L5.71977 9.21908L6.25 9.74951ZM8 8.00018L8.53053 8.53031L10.2799 6.77964L9.74933 6.24951L9.2188 5.71938L7.46947 7.47005L8 8.00018ZM8 8.00018L7.46977 8.53061L9.21977 10.2799L9.75 9.74951L10.2802 9.21908L8.53023 7.46975L8 8.00018ZM8 8.00018L8.53043 7.46995L6.78043 5.71928L6.25 6.24951L5.71957 6.77974L7.46957 8.53041L8 8.00018Z" fill="#DC3545"/>
</svg>
