<svg width="25" height="24" viewBox="0 0 25 24" fill="none" xmlns="http://www.w3.org/2000/svg">
<path fill-rule="evenodd" clip-rule="evenodd" d="M10.0652 4.00001H15.5862C15.6436 4.00001 15.7006 4.00367 15.7572 4.01101C18.0046 4.16817 19.7496 6.0332 19.7572 8.28601V14.715C19.749 17.0871 17.8213 19.0044 15.4492 19H10.0652C7.69274 19.0044 5.76495 17.0865 5.75723 14.714V8.28601C5.76495 5.91353 7.69274 3.99558 10.0652 4.00001Z" stroke="#565656" stroke-width="1.5" stroke-linecap="round" stroke-linejoin="round"/>
<path d="M15.7572 16.75C16.1714 16.75 16.5072 16.4142 16.5072 16C16.5072 15.5858 16.1714 15.25 15.7572 15.25V16V16.75ZM9.75723 15.25C9.34302 15.25 9.00723 15.5858 9.00723 16C9.00723 16.4142 9.34302 16.75 9.75723 16.75V16V15.25ZM19.7572 9.03599C20.1714 9.03599 20.5072 8.7002 20.5072 8.28599C20.5072 7.87177 20.1714 7.53599 19.7572 7.53599V8.28599V9.03599ZM15.7572 8.28599H15.0072C15.0072 8.7002 15.343 9.03599 15.7572 9.03599V8.28599ZM16.5072 4.01099C16.5072 3.59677 16.1714 3.26099 15.7572 3.26099C15.343 3.26099 15.0072 3.59677 15.0072 4.01099H15.7572H16.5072ZM15.2876 11.5303C15.5805 11.2374 15.5805 10.7625 15.2876 10.4697C14.9947 10.1768 14.5198 10.1768 14.2269 10.4697L14.7572 11L15.2876 11.5303ZM12.2269 12.4697C11.934 12.7625 11.934 13.2374 12.2269 13.5303C12.5198 13.8232 12.9947 13.8232 13.2876 13.5303L12.7572 13L12.2269 12.4697ZM12.2269 13.5303C12.5198 13.8232 12.9947 13.8232 13.2876 13.5303C13.5805 13.2374 13.5805 12.7625 13.2876 12.4697L12.7572 13L12.2269 13.5303ZM11.2876 10.4697C10.9947 10.1768 10.5198 10.1768 10.2269 10.4697C9.93401 10.7625 9.93401 11.2374 10.2269 11.5303L10.7572 11L11.2876 10.4697ZM12.0072 13C12.0072 13.4142 12.343 13.75 12.7572 13.75C13.1714 13.75 13.5072 13.4142 13.5072 13H12.7572H12.0072ZM13.5072 6.99999C13.5072 6.58577 13.1714 6.24999 12.7572 6.24999C12.343 6.24999 12.0072 6.58577 12.0072 6.99999H12.7572H13.5072ZM15.7572 16V15.25H9.75723V16V16.75H15.7572V16ZM19.7572 8.28599V7.53599H15.7572V8.28599V9.03599H19.7572V8.28599ZM15.7572 8.28599H16.5072V4.01099H15.7572H15.0072V8.28599H15.7572ZM14.7572 11L14.2269 10.4697L12.2269 12.4697L12.7572 13L13.2876 13.5303L15.2876 11.5303L14.7572 11ZM12.7572 13L13.2876 12.4697L11.2876 10.4697L10.7572 11L10.2269 11.5303L12.2269 13.5303L12.7572 13ZM12.7572 13H13.5072V6.99999H12.7572H12.0072V13H12.7572Z" fill="#565656"/>
</svg>
