<svg width="25" height="24" viewBox="0 0 25 24" fill="none" xmlns="http://www.w3.org/2000/svg">
<path d="M9.67452 18.9999C9.67452 19.4142 10.0103 19.7499 10.4245 19.7499C10.8387 19.7499 11.1745 19.4142 11.1745 18.9999H10.4245H9.67452ZM10.4245 16.6669H9.67452H10.4245ZM14.3425 18.9999C14.3425 19.4142 14.6783 19.7499 15.0925 19.7499C15.5067 19.7499 15.8425 19.4142 15.8425 18.9999H15.0925H14.3425ZM10.4245 19.7499C10.8387 19.7499 11.1745 19.4142 11.1745 18.9999C11.1745 18.5857 10.8387 18.2499 10.4245 18.2499V18.9999V19.7499ZM8.09052 18.9999L8.08288 19.7499H8.09052V18.9999ZM6.05852 17.2529L5.30903 17.2807C5.31018 17.3116 5.31323 17.3424 5.31818 17.373L6.05852 17.2529ZM5.78952 9.99395L6.539 9.96617C6.53773 9.93188 6.53411 9.8977 6.52815 9.8639L5.78952 9.99395ZM6.90152 7.74195L6.56053 7.07392L6.55572 7.07642L6.90152 7.74195ZM11.8365 5.22295L12.1775 5.89096L12.179 5.89017L11.8365 5.22295ZM13.6815 5.22295L13.339 5.89017L13.3405 5.89096L13.6815 5.22295ZM18.6165 7.74195L18.9623 7.07641L18.9575 7.07394L18.6165 7.74195ZM19.7285 9.99395L18.9899 9.8639C18.9839 9.89767 18.9803 9.93181 18.979 9.96607L19.7285 9.99395ZM19.4585 17.2529L20.1988 17.373C20.2038 17.3425 20.2068 17.3117 20.208 17.2808L19.4585 17.2529ZM17.4265 18.9999V19.75L17.4342 19.7499L17.4265 18.9999ZM15.0925 18.2499C14.6783 18.2499 14.3425 18.5857 14.3425 18.9999C14.3425 19.4142 14.6783 19.7499 15.0925 19.7499V18.9999V18.2499ZM10.4245 18.2499C10.0103 18.2499 9.67452 18.5857 9.67452 18.9999C9.67452 19.4142 10.0103 19.7499 10.4245 19.7499V18.9999V18.2499ZM15.0925 19.7499C15.5067 19.7499 15.8425 19.4142 15.8425 18.9999C15.8425 18.5857 15.5067 18.2499 15.0925 18.2499V18.9999V19.7499ZM10.4245 18.9999H11.1745V16.6669H10.4245H9.67452V18.9999H10.4245ZM10.4245 16.6669H11.1745C11.1745 15.7921 11.8837 15.0829 12.7585 15.0829V14.3329V13.5829C11.0553 13.5829 9.67452 14.9637 9.67452 16.6669H10.4245ZM12.7585 14.3329V15.0829C13.6333 15.0829 14.3425 15.7921 14.3425 16.6669H15.0925H15.8425C15.8425 14.9637 14.4618 13.5829 12.7585 13.5829V14.3329ZM15.0925 16.6669H14.3425V18.9999H15.0925H15.8425V16.6669H15.0925ZM10.4245 18.9999V18.2499H8.09052V18.9999V19.7499H10.4245V18.9999ZM8.09052 18.9999L8.09816 18.25C7.45094 18.2434 6.90244 17.7718 6.79885 17.1329L6.05852 17.2529L5.31818 17.373C5.5386 18.7325 6.70571 19.7359 8.08288 19.7499L8.09052 18.9999ZM6.05852 17.2529L6.808 17.2252L6.539 9.96617L5.78952 9.99395L5.04003 10.0217L5.30903 17.2807L6.05852 17.2529ZM5.78952 9.99395L6.52815 9.8639C6.4242 9.27348 6.71534 8.68388 7.24731 8.40747L6.90152 7.74195L6.55572 7.07642C5.44256 7.65481 4.83336 8.88855 5.05088 10.124L5.78952 9.99395ZM6.90152 7.74195L7.24249 8.40996L12.1775 5.89096L11.8365 5.22295L11.4955 4.55494L6.56054 7.07394L6.90152 7.74195ZM11.8365 5.22295L12.179 5.89017C12.5431 5.70328 12.9749 5.70328 13.339 5.89017L13.6815 5.22295L14.024 4.55573C13.2299 4.14809 12.2881 4.14809 11.494 4.55573L11.8365 5.22295ZM13.6815 5.22295L13.3405 5.89096L18.2755 8.40996L18.6165 7.74195L18.9575 7.07394L14.0225 4.55494L13.6815 5.22295ZM18.6165 7.74195L18.2707 8.40747C18.8027 8.68388 19.0938 9.27348 18.9899 9.8639L19.7285 9.99395L20.4672 10.124C20.6847 8.88855 20.0755 7.65481 18.9623 7.07642L18.6165 7.74195ZM19.7285 9.99395L18.979 9.96607L18.709 17.2251L19.4585 17.2529L20.208 17.2808L20.478 10.0218L19.7285 9.99395ZM19.4585 17.2529L18.7182 17.1329C18.6146 17.7718 18.0661 18.2434 17.4189 18.25L17.4265 18.9999L17.4342 19.7499C18.8113 19.7359 19.9784 18.7325 20.1988 17.373L19.4585 17.2529ZM17.4265 18.9999V18.2499H15.0925V18.9999V19.7499H17.4265V18.9999ZM10.4245 18.9999V19.7499H15.0925V18.9999V18.2499H10.4245V18.9999Z" fill="#565656"/>
</svg>
