<svg width="57" height="37" viewBox="0 0 57 37" fill="none" xmlns="http://www.w3.org/2000/svg">
<path d="M22.816 31.8966C21.5543 31.8966 20.6078 30.7426 20.8547 29.5053L24.6894 10.2846C24.876 9.34927 25.697 8.67587 26.6507 8.67587H28.9885C29.804 8.67587 30.5378 9.17104 30.8431 9.9273L36.283 23.4052C36.4942 23.9284 36.1091 24.4991 35.5449 24.4991C34.8815 24.4991 34.5092 23.7353 34.9179 23.2127L45.6872 9.44371C46.0663 8.95906 46.6473 8.67587 47.2626 8.67587H49.4485C50.708 8.67587 51.654 9.82599 51.4109 11.0618L47.631 30.2825C47.4466 31.2203 46.6244 31.8966 45.6686 31.8966H43.6863C42.4279 31.8966 41.4822 30.7483 41.7234 29.5132L43.9473 18.1245C43.9808 17.9531 44.1284 17.8277 44.303 17.8224C44.6191 17.8128 44.8037 18.1756 44.6097 18.4255L36.5309 28.834C36.152 29.3221 35.5688 29.6077 34.9509 29.6077H34.3783C33.5742 29.6077 32.8482 29.126 32.5356 28.3851L28.3245 18.4045C28.2019 18.1141 28.4321 17.7975 28.7461 17.8245C28.995 17.8459 29.1699 18.0791 29.1208 18.324L26.7223 30.2896C26.535 31.2241 25.7143 31.8966 24.7613 31.8966H22.816Z" fill="#7058FF"/>
<path fill-rule="evenodd" clip-rule="evenodd" d="M10.7841 24.6292C11.0774 20.7322 8.4899 17.2039 4.69201 16.322C8.57941 16.616 12.0991 14.0221 12.9788 10.2149C12.6855 14.1118 15.273 17.6402 19.0709 18.5221C15.1835 18.228 11.6638 20.822 10.7841 24.6292Z" stroke="#0C189C" stroke-width="1.5" stroke-linecap="round" stroke-linejoin="round"/>
<path fill-rule="evenodd" clip-rule="evenodd" d="M18.9479 31.4096C19.0942 29.4613 17.8006 27.6973 15.9019 27.256C17.8455 27.4027 19.6051 26.1059 20.0453 24.2025C19.899 26.1508 21.1926 27.9148 23.0914 28.3561C21.1478 28.2095 19.3881 29.5063 18.9479 31.4096Z" stroke="#0C189C" stroke-width="1.5" stroke-linecap="round" stroke-linejoin="round"/>
<path fill-rule="evenodd" clip-rule="evenodd" d="M22.7887 6.18455C22.3485 8.08794 20.5888 9.38473 18.6453 9.23811C20.544 9.67939 21.8376 11.4433 21.6913 13.3917C22.1315 11.4883 23.8911 10.1915 25.8347 10.3382C23.936 9.89688 22.6424 8.13292 22.7887 6.18455Z" stroke="#0C189C" stroke-width="1.5" stroke-linecap="round" stroke-linejoin="round"/>
</svg>
