<svg width="25" height="24" viewBox="0 0 25 24" fill="none" xmlns="http://www.w3.org/2000/svg">
<path fill-rule="evenodd" clip-rule="evenodd" d="M7.56247 15.7137C6.69763 14.8306 6.11104 13.7131 5.87547 12.4997C5.63796 11.2829 5.75992 10.0233 6.22647 8.87469C6.68904 7.73253 7.47877 6.75251 8.49647 6.05769C10.5613 4.64744 13.2796 4.64744 15.3445 6.05769C16.3622 6.75251 17.1519 7.73253 17.6145 8.87469C18.081 10.0233 18.203 11.2829 17.9655 12.4997C17.7299 13.7131 17.1433 14.8306 16.2785 15.7137C15.1331 16.889 13.5616 17.5519 11.9205 17.5519C10.2794 17.5519 8.70782 16.889 7.56247 15.7137V15.7137Z" stroke="#565656" stroke-width="1.5" stroke-linecap="round" stroke-linejoin="round"/>
<path d="M11.9275 7.20286C11.5156 7.2465 11.217 7.6158 11.2607 8.02771C11.3043 8.43962 11.6736 8.73815 12.0855 8.69451L12.0065 7.94868L11.9275 7.20286ZM13.7788 9.69207C13.9403 10.0735 14.3804 10.2518 14.7619 10.0903C15.1433 9.92886 15.3216 9.48873 15.1602 9.10729L14.4695 9.39968L13.7788 9.69207ZM16.8994 15.0869C16.6062 14.7942 16.1313 14.7947 15.8387 15.0878C15.5461 15.381 15.5465 15.8558 15.8396 16.1485L16.3695 15.6177L16.8994 15.0869ZM19.2276 19.5305C19.5208 19.8231 19.9957 19.8227 20.2883 19.5295C20.5809 19.2364 20.5805 18.7615 20.2874 18.4689L19.7575 18.9997L19.2276 19.5305ZM12.0065 7.94868L12.0855 8.69451C12.808 8.61795 13.4956 9.023 13.7788 9.69207L14.4695 9.39968L15.1602 9.10729C14.6194 7.82999 13.3068 7.0567 11.9275 7.20286L12.0065 7.94868ZM16.3695 15.6177L15.8396 16.1485L19.2276 19.5305L19.7575 18.9997L20.2874 18.4689L16.8994 15.0869L16.3695 15.6177Z" fill="#565656"/>
</svg>
