<svg width="25" height="24" viewBox="0 0 25 24" fill="none" xmlns="http://www.w3.org/2000/svg">
<path d="M5.50265 8.91722C5.45693 8.50553 5.08613 8.20886 4.67445 8.25458C4.26277 8.3003 3.9661 8.6711 4.01182 9.08278L4.75723 9L5.50265 8.91722ZM5.67023 17.221L4.92482 17.3038L4.92483 17.3039L5.67023 17.221ZM7.65723 19L7.65695 19.75H7.65723V19ZM17.8572 19L17.8573 18.25H17.8572V19ZM19.8452 17.221L20.5906 17.3039L20.5907 17.3037L19.8452 17.221ZM21.5027 9.08269C21.5483 8.67101 21.2516 8.30024 20.8399 8.25457C20.4282 8.2089 20.0575 8.50562 20.0118 8.91731L20.7572 9L21.5027 9.08269ZM2.75723 8.25C2.34302 8.25 2.00723 8.58579 2.00723 9C2.00723 9.41421 2.34302 9.75 2.75723 9.75V9V8.25ZM22.7572 9.75C23.1714 9.75 23.5072 9.41421 23.5072 9C23.5072 8.58579 23.1714 8.25 22.7572 8.25V9V9.75ZM5.08641 8.66459C4.90117 9.03507 5.05134 9.48558 5.42182 9.67082C5.79231 9.85606 6.24281 9.70589 6.42805 9.33541L5.75723 9L5.08641 8.66459ZM8.42805 5.33541C8.6133 4.96493 8.46313 4.51442 8.09264 4.32918C7.72216 4.14394 7.27165 4.29411 7.08641 4.66459L7.75723 5L8.42805 5.33541ZM19.0864 9.33541C19.2717 9.70589 19.7222 9.85606 20.0926 9.67082C20.4631 9.48558 20.6133 9.03507 20.4281 8.66459L19.7572 9L19.0864 9.33541ZM18.4281 4.66459C18.2428 4.29411 17.7923 4.14394 17.4218 4.32918C17.0513 4.51442 16.9012 4.96493 17.0864 5.33541L17.7572 5L18.4281 4.66459ZM9.00723 15C9.00723 15.4142 9.34302 15.75 9.75723 15.75C10.1714 15.75 10.5072 15.4142 10.5072 15H9.75723H9.00723ZM10.5072 13C10.5072 12.5858 10.1714 12.25 9.75723 12.25C9.34302 12.25 9.00723 12.5858 9.00723 13H9.75723H10.5072ZM12.0072 15C12.0072 15.4142 12.343 15.75 12.7572 15.75C13.1714 15.75 13.5072 15.4142 13.5072 15H12.7572H12.0072ZM13.5072 13C13.5072 12.5858 13.1714 12.25 12.7572 12.25C12.343 12.25 12.0072 12.5858 12.0072 13H12.7572H13.5072ZM15.0072 15C15.0072 15.4142 15.343 15.75 15.7572 15.75C16.1714 15.75 16.5072 15.4142 16.5072 15H15.7572H15.0072ZM16.5072 13C16.5072 12.5858 16.1714 12.25 15.7572 12.25C15.343 12.25 15.0072 12.5858 15.0072 13H15.7572H16.5072ZM4.75723 9L4.01182 9.08278L4.92482 17.3038L5.67023 17.221L6.41565 17.1382L5.50265 8.91722L4.75723 9ZM5.67023 17.221L4.92483 17.3039C5.07961 18.6961 6.25616 19.7495 7.65695 19.75L7.65723 19L7.65751 18.25C7.02079 18.2498 6.486 17.771 6.41564 17.1381L5.67023 17.221ZM7.65723 19V19.75H17.8572V19V18.25H7.65723V19ZM17.8572 19L17.8571 19.75C19.2585 19.7502 20.4358 18.6966 20.5906 17.3039L19.8452 17.221L19.0998 17.1381C19.0294 17.7712 18.4943 18.2501 17.8573 18.25L17.8572 19ZM19.8452 17.221L20.5907 17.3037L21.5027 9.08269L20.7572 9L20.0118 8.91731L19.0998 17.1383L19.8452 17.221ZM2.75723 9V9.75H22.7572V9V8.25H2.75723V9ZM5.75723 9L6.42805 9.33541L8.42805 5.33541L7.75723 5L7.08641 4.66459L5.08641 8.66459L5.75723 9ZM19.7572 9L20.4281 8.66459L18.4281 4.66459L17.7572 5L17.0864 5.33541L19.0864 9.33541L19.7572 9ZM9.75723 15H10.5072V13H9.75723H9.00723V15H9.75723ZM12.7572 15H13.5072V13H12.7572H12.0072V15H12.7572ZM15.7572 15H16.5072V13H15.7572H15.0072V15H15.7572Z" fill="#565656"/>
</svg>
