<svg width="25" height="24" viewBox="0 0 25 24" fill="none" xmlns="http://www.w3.org/2000/svg">
<path d="M10.2876 13.4697C9.99467 13.1768 9.5198 13.1768 9.2269 13.4697C8.93401 13.7626 8.93401 14.2374 9.2269 14.5303L9.75723 14L10.2876 13.4697ZM11.7572 16L11.2269 16.5303C11.5198 16.8232 11.9947 16.8232 12.2876 16.5303L11.7572 16ZM16.2876 12.5303C16.5805 12.2374 16.5805 11.7626 16.2876 11.4697C15.9947 11.1768 15.5198 11.1768 15.2269 11.4697L15.7572 12L16.2876 12.5303ZM5.02666 9.13841C4.933 9.5419 5.18416 9.94492 5.58765 10.0386C5.99113 10.1322 6.39415 9.88107 6.48781 9.47759L5.75723 9.308L5.02666 9.13841ZM6.75723 5V4.25C6.40835 4.25 6.10554 4.49057 6.02666 4.83041L6.75723 5ZM12.7572 5.75C13.1714 5.75 13.5072 5.41421 13.5072 5C13.5072 4.58579 13.1714 4.25 12.7572 4.25V5V5.75ZM6.50723 9.308C6.50723 8.89379 6.17145 8.558 5.75723 8.558C5.34302 8.558 5.00723 8.89379 5.00723 9.308H5.75723H6.50723ZM5.75723 19H5.00723C5.00723 19.4142 5.34302 19.75 5.75723 19.75V19ZM19.7572 19V19.75C20.1714 19.75 20.5072 19.4142 20.5072 19H19.7572ZM20.5072 9.308C20.5072 8.89379 20.1714 8.558 19.7572 8.558C19.343 8.558 19.0072 8.89379 19.0072 9.308H19.7572H20.5072ZM5.75723 8.558C5.34302 8.558 5.00723 8.89379 5.00723 9.308C5.00723 9.72221 5.34302 10.058 5.75723 10.058V9.308V8.558ZM12.7572 10.058C13.1714 10.058 13.5072 9.72221 13.5072 9.308C13.5072 8.89379 13.1714 8.558 12.7572 8.558V9.308V10.058ZM12.0072 9.308C12.0072 9.72221 12.343 10.058 12.7572 10.058C13.1714 10.058 13.5072 9.72221 13.5072 9.308H12.7572H12.0072ZM13.5072 5C13.5072 4.58579 13.1714 4.25 12.7572 4.25C12.343 4.25 12.0072 4.58579 12.0072 5H12.7572H13.5072ZM12.7572 8.558C12.343 8.558 12.0072 8.89379 12.0072 9.308C12.0072 9.72221 12.343 10.058 12.7572 10.058V9.308V8.558ZM19.7572 10.058C20.1714 10.058 20.5072 9.72221 20.5072 9.308C20.5072 8.89379 20.1714 8.558 19.7572 8.558V9.308V10.058ZM13.5072 9.308C13.5072 8.89379 13.1714 8.558 12.7572 8.558C12.343 8.558 12.0072 8.89379 12.0072 9.308H12.7572H13.5072ZM12.0072 11C12.0072 11.4142 12.343 11.75 12.7572 11.75C13.1714 11.75 13.5072 11.4142 13.5072 11H12.7572H12.0072ZM12.7572 4.25C12.343 4.25 12.0072 4.58579 12.0072 5C12.0072 5.41421 12.343 5.75 12.7572 5.75V5V4.25ZM18.7572 5L19.4878 4.83041C19.4089 4.49057 19.1061 4.25 18.7572 4.25V5ZM19.0267 9.47759C19.1203 9.88107 19.5233 10.1322 19.9268 10.0386C20.3303 9.94492 20.5815 9.5419 20.4878 9.13841L19.7572 9.308L19.0267 9.47759ZM9.75723 14L9.2269 14.5303L11.2269 16.5303L11.7572 16L12.2876 15.4697L10.2876 13.4697L9.75723 14ZM11.7572 16L12.2876 16.5303L16.2876 12.5303L15.7572 12L15.2269 11.4697L11.2269 15.4697L11.7572 16ZM5.75723 9.308L6.48781 9.47759L7.48781 5.16959L6.75723 5L6.02666 4.83041L5.02666 9.13841L5.75723 9.308ZM6.75723 5V5.75H12.7572V5V4.25H6.75723V5ZM5.75723 9.308H5.00723V19H5.75723H6.50723V9.308H5.75723ZM5.75723 19V19.75H19.7572V19V18.25H5.75723V19ZM19.7572 19H20.5072V9.308H19.7572H19.0072V19H19.7572ZM5.75723 9.308V10.058H12.7572V9.308V8.558H5.75723V9.308ZM12.7572 9.308H13.5072V5H12.7572H12.0072V9.308H12.7572ZM12.7572 9.308V10.058H19.7572V9.308V8.558H12.7572V9.308ZM12.7572 9.308H12.0072V11H12.7572H13.5072V9.308H12.7572ZM12.7572 5V5.75H18.7572V5V4.25H12.7572V5ZM18.7572 5L18.0267 5.16959L19.0267 9.47759L19.7572 9.308L20.4878 9.13841L19.4878 4.83041L18.7572 5Z" fill="#7058FF"/>
</svg>
